<?xml version="1.0" standalone="no"?>
<!DOCTYPE svg PUBLIC "-//W3C//DTD SVG 20010904//EN"
 "http://www.w3.org/TR/2001/REC-SVG-20010904/DTD/svg10.dtd">
<svg version="1.0" xmlns="http://www.w3.org/2000/svg"
 width="198.000000pt" height="198.000000pt" viewBox="0 0 198.000000 198.000000"
 preserveAspectRatio="xMidYMid meet">
<metadata>
Created by potrace 1.11, written by Peter Selinger 2001-2013
</metadata>
<g transform="translate(0.000000,198.000000) scale(0.100000,-0.100000)"
fill="#000000" stroke="none">
<path d="M985 1751 c-138 -7 -236 -26 -430 -87 -124 -39 -127 -40 -144 -72 -7
-12 -37 -36 -67 -54 -34 -19 -65 -46 -80 -70 -14 -21 -41 -57 -61 -79 -30 -33
-40 -57 -60 -137 -21 -88 -23 -113 -18 -262 2 -91 11 -199 19 -240 14 -71 17
-77 70 -125 33 -30 63 -68 75 -96 22 -53 53 -79 93 -79 15 0 52 -14 83 -31 53
-29 77 -35 228 -60 37 -6 67 -17 67 -23 0 -19 107 -116 129 -116 11 0 52 7 91
15 40 8 75 13 80 10 4 -3 25 22 46 55 20 32 41 57 46 54 4 -3 13 -2 19 2 6 4
32 8 58 9 164 9 245 31 353 97 156 95 161 98 198 174 19 39 45 85 57 101 65
88 65 317 -1 471 -133 310 -207 381 -536 507 -105 41 -135 45 -315 36z m-55
-926 c0 -34 20 -42 42 -15 14 17 18 19 18 6 0 -9 3 -15 8 -13 14 4 55 -42 49
-56 -5 -14 10 -37 24 -37 4 0 11 9 14 20 5 15 12 19 31 14 21 -5 26 -1 35 25
l11 31 17 -22 c19 -25 23 -41 22 -102 -1 -22 4 -43 10 -47 12 -7 -2 -42 -28
-67 -7 -8 -11 -18 -8 -23 4 -5 1 -9 -5 -9 -6 0 -8 -4 -5 -10 3 -5 0 -10 -8
-10 -10 0 -12 -11 -10 -40 2 -22 -1 -40 -5 -40 -4 0 -9 -12 -10 -27 -1 -16
-10 -33 -20 -40 -9 -7 -25 -20 -34 -29 -11 -11 -18 -13 -18 -5 0 9 -3 9 -14
-1 -8 -7 -11 -17 -8 -23 3 -5 2 -7 -3 -3 -9 9 -65 -19 -65 -32 0 -6 -5 -10
-11 -10 -5 0 -7 4 -4 10 3 6 1 10 -4 10 -6 0 -11 -4 -11 -10 0 -5 -5 -10 -11
-10 -5 0 -7 5 -3 11 4 8 0 9 -15 4 -15 -4 -21 -2 -21 9 0 10 -6 13 -15 10 -8
-4 -15 -1 -15 6 0 6 -4 9 -9 6 -5 -3 -12 5 -15 19 -4 14 -13 25 -22 25 -8 0
-13 4 -10 9 3 4 -3 27 -14 49 -11 23 -20 46 -20 52 0 5 -5 10 -10 10 -7 0 -7
6 0 19 11 21 -12 91 -31 91 -5 0 -8 4 -4 9 3 6 -1 14 -9 18 -14 7 -14 15 -1
63 8 30 19 56 25 58 5 2 10 10 10 17 0 8 5 26 11 42 l11 28 17 -21 c12 -16 22
-19 38 -13 17 6 23 4 28 -11 10 -31 32 -12 39 32 4 23 9 45 12 50 9 14 24 -2
24 -27z"/>
<path d="M770 711 c0 -14 100 -72 112 -65 5 4 13 1 17 -5 5 -7 12 -3 19 14 10
22 9 25 -8 25 -11 0 -43 9 -72 20 -60 23 -68 24 -68 11z"/>
<path d="M1085 700 c-27 -11 -57 -19 -67 -20 -11 0 -15 -6 -11 -20 3 -11 10
-20 15 -20 5 0 7 -4 4 -9 -10 -16 6 -42 30 -52 34 -12 70 4 89 40 19 38 19 52
-1 44 -10 -4 -12 -8 -5 -13 7 -4 3 -14 -13 -29 -17 -16 -33 -22 -57 -19 -39 3
-49 34 -12 32 12 0 20 3 17 8 -3 4 2 8 10 8 27 0 85 40 79 56 -7 18 -16 17
-78 -6z"/>
<path d="M791 658 c-1 -10 8 -27 19 -38 11 -11 20 -24 20 -30 0 -17 67 -12 74
5 4 12 -1 15 -22 13 -43 -3 -70 11 -81 40 -6 17 -10 21 -10 10z"/>
<path d="M949 627 c0 -1 -2 -10 -4 -20 -3 -15 -1 -16 11 -6 11 9 14 8 14 -4 0
-8 -6 -18 -12 -20 -8 -3 -6 -6 5 -6 15 -1 15 -4 5 -22 -11 -17 -10 -22 4 -33
16 -12 11 -38 -7 -38 -12 0 -27 31 -21 41 4 5 -3 7 -15 4 -15 -4 -19 -12 -17
-31 6 -52 108 -49 108 3 0 15 -4 24 -9 21 -5 -4 -13 8 -17 26 -4 18 -9 36 -10
41 -1 4 -2 13 -3 21 -1 11 -29 31 -32 23z"/>
<path d="M866 419 c-25 -17 -46 -35 -46 -40 0 -14 38 -11 47 5 8 13 45 36 58
36 3 0 -7 -11 -22 -24 -30 -26 -30 -30 5 -40 16 -6 22 -3 22 8 0 9 5 16 11 16
6 0 9 -7 5 -15 -6 -16 9 -21 18 -6 3 4 16 6 30 4 29 -6 42 12 25 33 -9 11 -23
14 -46 11 -18 -3 -33 -2 -33 4 0 5 5 9 10 9 6 0 10 6 10 13 0 24 -47 17 -94
-14z"/>
<path d="M975 439 c-4 -5 -4 -10 -1 -10 3 -1 11 -3 16 -4 6 -1 14 -3 19 -4 6
0 22 -12 37 -26 27 -25 44 -32 44 -17 0 31 -101 85 -115 61z"/>
</g>
</svg>
