<?xml version="1.0" standalone="no"?>
<!DOCTYPE svg PUBLIC "-//W3C//DTD SVG 20010904//EN"
 "http://www.w3.org/TR/2001/REC-SVG-20010904/DTD/svg10.dtd">
<svg version="1.0" xmlns="http://www.w3.org/2000/svg"
 width="512.000000pt" height="512.000000pt" viewBox="0 0 512.000000 512.000000"
 preserveAspectRatio="xMidYMid meet">
<metadata>
Created by potrace 1.11, written by Peter Selinger 2001-2013
</metadata>
<g transform="translate(0.000000,512.000000) scale(0.100000,-0.100000)"
fill="#000000" stroke="none">
<path d="M2206 4684 c-28 -15 -73 -28 -105 -31 -31 -2 -83 -16 -115 -30 -79
-34 -165 -40 -256 -18 -90 22 -178 16 -216 -14 -15 -12 -32 -21 -39 -21 -7 0
-29 -13 -50 -30 -23 -19 -50 -30 -69 -30 -17 0 -42 -9 -56 -20 -14 -11 -37
-20 -51 -20 -14 0 -41 -11 -60 -25 -19 -13 -43 -29 -54 -34 -11 -5 -29 -23
-40 -40 -11 -17 -33 -36 -49 -43 -16 -6 -54 -37 -85 -68 -49 -49 -68 -79 -115
-179 -6 -14 -24 -32 -41 -40 -76 -40 -175 -177 -206 -283 -12 -40 -27 -67
-105 -188 -36 -57 -74 -145 -80 -189 -2 -18 -9 -41 -14 -51 -5 -10 -13 -57
-16 -104 -6 -71 -11 -91 -30 -112 -13 -14 -24 -30 -24 -37 0 -6 -18 -27 -41
-47 l-41 -35 -10 -120 c-5 -66 -16 -134 -24 -152 -34 -76 -48 -278 -19 -289 8
-3 21 -29 29 -57 9 -29 34 -79 56 -112 l40 -60 0 -115 c0 -88 4 -121 15 -138
9 -12 19 -44 22 -72 3 -27 12 -55 19 -61 8 -6 14 -17 14 -23 1 -32 98 -188
159 -254 18 -21 42 -50 52 -67 10 -16 55 -71 100 -122 67 -76 89 -94 118 -99
20 -4 51 -20 69 -35 18 -16 40 -29 48 -29 15 0 74 -33 181 -99 23 -14 68 -46
100 -71 l58 -45 101 3 c83 3 104 0 118 -13 9 -9 16 -21 16 -26 0 -5 12 -12 27
-15 15 -4 43 -16 62 -28 29 -17 49 -20 129 -18 53 2 98 5 102 7 4 3 16 -14 26
-37 10 -23 30 -58 45 -78 15 -20 35 -52 44 -71 21 -41 64 -89 81 -89 6 0 14
-7 18 -15 3 -8 11 -15 17 -15 17 0 38 -32 39 -57 0 -16 6 -23 20 -23 10 0 32
-11 47 -25 39 -36 101 -75 118 -75 8 0 15 -7 15 -15 0 -8 16 -19 38 -24 20 -6
47 -18 60 -27 13 -9 42 -18 64 -21 23 -2 51 -9 62 -15 10 -6 96 -12 191 -14
135 -3 177 0 199 11 15 8 32 13 36 10 32 -20 230 93 230 132 0 7 7 13 15 13
22 0 87 47 106 78 9 15 37 47 63 72 25 24 46 49 46 56 0 6 7 17 15 24 27 22
75 116 70 138 -2 15 0 19 11 15 8 -3 13 -13 12 -22 -3 -14 11 -16 120 -14 129
2 148 8 197 54 34 32 118 79 141 79 9 0 43 15 77 34 34 19 73 37 86 41 14 4
58 33 99 64 41 31 82 61 91 66 9 6 40 29 69 53 30 23 62 42 71 42 19 0 138
122 187 192 19 28 40 81 58 148 16 58 36 125 47 150 37 90 55 166 65 275 6 64
9 72 37 90 63 41 67 54 68 230 4 518 -1 696 -22 774 -11 42 -28 84 -37 94 -11
13 -18 47 -23 110 -13 173 -33 231 -105 309 -24 26 -44 52 -44 58 0 35 -64
143 -119 200 -42 45 -63 75 -67 100 -4 19 -17 56 -30 81 -26 53 -136 159 -185
179 -19 7 -72 50 -119 94 -47 45 -107 94 -135 110 -27 16 -57 34 -65 41 -8 7
-31 18 -51 24 -20 6 -47 23 -59 36 -13 14 -34 25 -48 25 -40 0 -185 40 -232
65 -33 17 -68 25 -126 28 -45 3 -92 11 -105 18 -15 8 -63 14 -124 15 -62 1
-116 8 -144 18 -37 14 -101 16 -440 16 l-396 -1 -49 -25z m731 -1699 c26 -24
44 -48 40 -52 -4 -4 -31 16 -60 45 -63 63 -45 70 20 7z m1 -43 c36 -31 44 -44
45 -74 0 -20 4 -35 7 -33 4 2 17 -10 30 -27 14 -18 18 -33 12 -37 -17 -10 30
-159 56 -175 10 -6 -9 59 -21 70 -11 11 -8 44 3 44 6 0 10 -12 10 -26 0 -21 3
-24 13 -15 16 13 27 5 27 -20 0 -32 21 -32 49 0 15 17 34 31 41 31 9 0 6 7 -8
20 -21 19 -31 70 -14 70 4 -1 16 -15 27 -32 11 -18 43 -48 70 -67 44 -31 48
-19 5 16 -31 25 1 12 56 -23 52 -33 83 -42 49 -14 -8 7 -15 19 -15 27 0 13 3
13 15 3 18 -15 20 1 3 19 -11 10 -10 11 4 6 13 -5 19 0 23 18 7 24 8 23 66
-35 32 -32 59 -67 59 -75 0 -23 23 -83 31 -83 4 0 5 -9 2 -20 -3 -12 0 -20 6
-20 7 0 9 -5 6 -10 -4 -6 3 -26 15 -45 23 -38 38 -48 20 -14 -7 11 -9 23 -6
26 3 4 0 13 -7 21 -10 13 -9 14 1 8 7 -4 21 -25 32 -47 11 -21 24 -39 28 -39
10 0 56 -69 50 -76 -3 -3 -21 13 -40 36 -19 22 -38 40 -41 40 -17 0 -4 -23 32
-55 33 -30 40 -43 47 -93 4 -31 8 -59 9 -62 1 -3 5 -25 9 -50 5 -25 13 -51 19
-58 8 -10 7 -19 -2 -34 -11 -18 -11 -20 2 -15 10 4 18 -1 21 -11 10 -32 -9
-82 -30 -82 -8 0 -14 -9 -14 -19 0 -25 -16 -36 -24 -16 -8 21 -21 19 -23 -3
-1 -11 10 -23 28 -31 16 -7 29 -17 29 -22 0 -6 -4 -7 -10 -4 -5 3 -10 0 -10
-7 0 -9 -3 -9 -10 2 -9 13 -11 13 -20 0 -8 -13 -11 -11 -16 8 -4 12 -11 22
-16 22 -5 0 -6 -5 -3 -10 4 -6 1 -17 -5 -25 -18 -21 -6 -41 28 -48 30 -6 62
-31 62 -48 0 -18 -22 -9 -27 12 -5 17 -11 20 -36 15 -16 -3 -40 -6 -54 -6
l-24 0 30 -29 29 -29 -25 0 c-16 0 -22 5 -19 14 3 7 1 16 -5 20 -17 10 -20 -1
-10 -29 7 -18 15 -25 26 -21 9 4 15 1 15 -9 0 -8 -6 -15 -12 -14 -45 1 -62 -3
-50 -15 7 -7 12 -22 12 -35 0 -13 5 -23 10 -23 6 0 10 5 10 10 0 16 17 12 24
-6 4 -11 2 -15 -8 -11 -7 3 -18 1 -24 -5 -8 -8 -15 -1 -26 23 l-16 34 5 -33
c4 -31 3 -33 -18 -27 -12 3 -17 3 -11 -2 6 -4 13 -17 16 -28 3 -11 9 -28 13
-37 5 -14 2 -18 -12 -18 -21 0 -29 -35 -11 -46 7 -4 8 -2 4 4 -8 14 -4 15 18
6 12 -5 13 -10 5 -26 -8 -15 -7 -24 4 -36 8 -9 17 -25 20 -35 6 -15 3 -17 -13
-12 -16 5 -19 3 -13 -10 5 -16 4 -16 -25 -1 -57 29 -67 18 -19 -21 25 -21 44
-39 42 -42 -3 -2 -11 2 -20 9 -8 7 -15 9 -15 4 0 -5 -7 2 -16 14 -16 23 -41
32 -27 10 4 -7 8 -15 9 -18 5 -25 27 -61 46 -74 12 -9 18 -16 12 -16 -6 0 -23
9 -37 20 -35 28 -45 25 -17 -5 28 -30 22 -31 -25 -5 -47 26 -44 10 5 -33 22
-19 40 -37 40 -42 0 -4 -7 -2 -16 6 -13 10 -17 10 -26 -2 -8 -11 -9 -11 -5 3
4 10 -3 22 -19 33 -24 15 -25 15 -22 -2 2 -10 9 -24 16 -31 6 -7 12 -20 12
-28 0 -12 -4 -13 -21 -3 -23 12 -24 6 -3 -46 6 -16 3 -15 -14 5 -28 33 -29 8
-2 -43 11 -20 20 -40 20 -44 0 -3 -9 2 -20 12 -11 10 -20 13 -20 7 0 -6 -9
-14 -21 -17 -14 -5 -19 -13 -16 -26 6 -21 -8 -26 -17 -6 -3 6 -3 2 0 -10 6
-26 1 -28 -27 -13 -11 6 -19 7 -19 1 0 -5 7 -11 15 -15 8 -3 15 -12 15 -21 0
-8 6 -15 14 -15 8 0 17 -4 20 -9 4 -5 -4 -7 -16 -3 -14 3 -19 2 -14 -6 4 -7 1
-12 -8 -12 -8 0 -22 -7 -30 -15 -12 -12 -20 -13 -35 -5 -27 14 -44 13 -38 -4
3 -9 -3 -17 -16 -21 -17 -6 -19 -8 -6 -12 11 -3 15 -12 11 -29 -6 -31 -17 -38
-42 -24 -26 14 -26 0 0 -28 12 -12 15 -22 9 -22 -6 0 -17 7 -24 16 -10 15 -12
13 -13 -14 -1 -43 -10 -56 -29 -41 -17 14 -53 20 -53 8 0 -4 -3 -14 -6 -23 -4
-9 5 -25 22 -41 15 -14 20 -23 11 -19 -11 4 -17 1 -17 -8 0 -21 -32 -18 -38 4
-2 10 -8 18 -13 18 -5 0 -9 7 -9 15 0 8 -5 15 -11 15 -6 0 -9 -7 -6 -15 9 -21
-11 -29 -29 -11 -8 9 -22 16 -30 16 -13 0 -13 -2 0 -16 21 -20 21 -48 0 -40
-12 4 -14 1 -9 -14 7 -23 -13 -27 -34 -8 -11 11 -13 8 -9 -14 3 -15 2 -25 -3
-23 -4 3 -9 0 -11 -7 -3 -7 -11 -9 -24 -4 -16 7 -16 9 -4 15 21 8 26 55 5 47
-10 -3 -15 1 -15 12 0 15 -2 15 -10 2 -5 -8 -10 -27 -10 -42 0 -15 -4 -30 -10
-33 -5 -3 -10 2 -10 12 0 15 -2 16 -10 3 -9 -13 -11 -13 -20 0 -5 8 -10 21
-10 28 0 6 -4 12 -9 12 -5 0 -7 -18 -4 -40 6 -43 -6 -51 -39 -26 -19 14 -24
46 -8 46 6 0 10 -7 10 -17 0 -24 6 -13 14 26 5 27 3 32 -9 27 -10 -3 -15 1
-15 12 0 11 -5 8 -14 -10 -8 -15 -12 -36 -9 -48 3 -11 0 -20 -6 -20 -6 0 -11
7 -11 16 0 14 -1 14 -16 0 -18 -19 -24 -19 -58 -6 -14 5 -26 6 -26 1 0 -4 -11
-6 -25 -3 -16 3 -27 13 -31 29 -8 28 3 44 16 23 7 -12 12 -12 22 -2 14 14 -1
34 -29 38 -22 4 -33 -13 -33 -51 0 -23 -3 -27 -10 -15 -8 12 -10 12 -10 1 0
-10 -3 -11 -14 -2 -15 12 -19 61 -5 61 5 0 9 -5 9 -11 0 -5 5 -7 10 -4 6 3 10
13 10 21 0 8 -4 12 -10 9 -5 -3 -10 1 -10 10 0 11 -5 15 -14 12 -8 -3 -17 -1
-19 6 -3 7 -8 -3 -12 -21 -4 -18 -16 -37 -25 -42 -17 -9 -17 -7 -7 22 9 24 9
32 0 35 -7 3 -13 14 -13 25 0 14 -5 18 -16 14 -9 -3 -19 -6 -23 -6 -5 0 -6
-11 -4 -24 3 -13 0 -27 -6 -30 -6 -4 -11 -3 -11 3 0 6 -7 8 -15 5 -9 -4 -15 0
-15 9 0 8 -5 17 -11 19 -7 2 -5 9 5 17 14 12 16 10 16 -9 0 -28 13 -18 17 13
1 12 5 34 7 49 4 22 2 26 -11 21 -12 -5 -15 -2 -10 10 3 9 3 17 -2 17 -5 0
-14 -20 -21 -44 -7 -25 -19 -47 -26 -50 -12 -4 -12 -2 -4 14 6 11 8 20 5 20
-3 0 -2 8 3 17 7 11 5 21 -4 31 -10 10 -11 18 -4 33 12 22 1 25 -29 9 -12 -6
-17 -17 -14 -32 3 -18 0 -24 -16 -25 -11 -1 -23 2 -26 8 -4 5 1 9 10 9 9 0 13
5 10 10 -4 6 -1 17 5 25 10 12 9 15 -3 15 -8 0 -18 -7 -21 -17 -6 -15 -8 -14
-20 2 -15 21 -37 12 -30 -13 5 -16 5 -16 -6 0 -6 10 -18 18 -25 18 -8 0 -15 2
-15 4 0 2 -3 13 -7 23 -6 17 -5 17 13 1 18 -16 22 -16 42 -2 21 14 22 41 1 29
-5 -4 -9 0 -9 7 0 10 -2 10 -9 0 -7 -12 -12 -12 -30 0 -12 7 -19 18 -17 23 4
11 -21 53 -26 44 -21 -34 -28 -52 -22 -61 4 -6 1 -9 -7 -6 -8 3 -13 16 -11 32
2 20 -3 29 -22 37 -14 7 -22 17 -19 25 3 9 -2 14 -12 14 -13 0 -16 8 -14 41 2
27 -1 43 -11 49 -8 6 -10 10 -5 10 6 0 2 5 -8 11 -15 9 -16 13 -6 25 10 12 8
16 -9 20 -19 6 -21 30 -2 44 4 3 10 15 14 28 6 18 4 22 -14 22 -12 0 -18 4
-15 10 4 6 -6 7 -26 3 -31 -6 -32 -5 -25 22 6 24 4 27 -11 21 -10 -4 -3 7 14
23 28 24 31 30 18 41 -11 9 -12 17 -5 30 13 24 13 43 0 35 -5 -3 -10 -1 -10 4
0 6 -7 11 -15 11 -8 0 -15 5 -15 10 0 6 7 10 17 10 9 0 14 3 10 6 -3 4 0 19 8
34 11 22 12 29 2 33 -8 2 -6 9 7 22 17 18 17 19 -6 37 -13 11 -32 16 -45 13
-17 -4 -21 -2 -17 10 4 10 0 15 -10 15 -9 0 -16 7 -16 15 0 8 -6 15 -14 15
-17 0 -31 18 -22 27 3 3 12 1 19 -5 10 -9 19 -8 35 4 25 17 29 34 8 34 -8 0
-17 6 -19 13 -3 7 -6 5 -6 -5 -1 -21 -8 -23 -25 -5 -17 16 -9 77 10 77 8 0 14
5 14 10 0 6 -2 10 -4 10 -2 0 -11 3 -20 6 -11 4 -16 1 -16 -10 0 -9 -4 -16
-10 -16 -5 0 -10 6 -10 14 0 9 -8 12 -26 8 -31 -6 -47 14 -33 39 12 24 11 29
-6 29 -8 0 -15 4 -15 10 0 5 6 7 13 4 17 -6 32 12 41 49 5 20 2 29 -10 34 -9
3 -20 0 -24 -7 -6 -9 -11 9 -16 49 -4 34 -12 68 -18 74 -23 23 -24 44 -5 73
15 23 19 25 19 10 0 -18 1 -19 20 -1 11 10 23 15 28 10 4 -4 1 -10 -5 -12 -15
-5 -18 -33 -4 -33 17 0 37 54 40 105 5 84 5 89 -8 133 -9 33 -9 47 0 58 6 7 9
21 5 29 -3 9 -2 13 4 10 17 -11 48 55 54 119 9 77 14 86 56 91 19 3 41 12 49
21 17 18 15 18 -34 -2 -8 -3 -15 -1 -15 5 0 6 11 16 25 21 14 5 28 18 31 27 3
10 10 27 14 38 5 11 12 30 15 43 9 33 22 19 30 -34 3 -26 9 -53 12 -60 3 -9
-2 -14 -13 -15 -15 0 -14 -2 5 -10 16 -6 21 -14 17 -25 -5 -13 -1 -15 19 -12
31 6 33 -7 3 -16 -19 -5 -21 -8 -8 -16 10 -7 11 -10 3 -11 -28 -3 -32 -4 -40
-12 -7 -8 48 -2 90 10 9 2 17 0 17 -6 0 -19 17 -12 23 8 4 16 12 19 43 16 21
-2 45 1 52 8 11 9 17 7 27 -6 6 -9 15 -14 18 -10 4 3 7 1 7 -5 0 -7 -4 -12
-10 -12 -5 0 -10 -5 -10 -11 0 -6 9 -8 20 -4 14 4 22 1 27 -12 4 -10 11 -21
17 -25 6 -4 7 -11 2 -15 -4 -4 -16 3 -27 16 -11 13 -23 20 -27 16 -4 -4 -1
-10 6 -12 6 -3 12 -11 12 -19 0 -8 4 -14 10 -14 5 0 7 -8 3 -17 -6 -17 -5 -17
14 0 11 9 22 14 26 11 3 -3 22 -1 42 6 26 9 35 16 31 27 -5 11 -2 13 9 9 10
-3 15 -1 14 7 -1 6 2 21 6 31 6 13 3 29 -8 48 -9 16 -12 28 -5 28 5 0 7 7 4
16 -3 8 -2 13 3 9 5 -3 12 13 16 35 7 43 22 60 35 39 6 -9 12 -5 22 16 l13 28
6 -24 6 -24 11 25 11 25 0 -27 c1 -48 19 -39 26 12 l7 51 21 -23 c15 -17 18
-18 14 -5 -4 9 -2 17 4 17 6 0 8 13 5 33 -6 32 -5 31 14 -8 12 -24 20 -33 20
-21 0 15 3 16 15 6 8 -7 16 -10 16 -6 1 3 3 11 4 16 1 6 3 18 4 28 1 12 16 1
51 -38 27 -30 49 -51 50 -45 0 5 -18 28 -40 50 -30 30 -42 52 -46 81 -5 38 -4
38 8 13 21 -43 81 -115 114 -138 35 -25 52 -27 34 -6 -17 20 -7 19 43 -6 l42
-21 -25 27 c-25 28 -25 28 -2 22 25 -6 28 3 10 22 -11 10 -10 11 2 7 10 -4 19
3 27 20 11 23 10 29 -10 45 l-22 18 25 1 c14 1 19 4 13 7 -18 7 -16 23 3 23 8
0 12 5 9 10 -14 23 23 7 63 -28z m-444 -61 c-6 -6 -24 19 -24 34 1 6 7 1 15
-9 8 -11 12 -22 9 -25z m297 -38 c13 -16 12 -17 -3 -4 -10 7 -18 15 -18 17 0
8 8 3 21 -13z m459 -53 c0 -5 -4 -10 -10 -10 -5 0 -10 5 -10 10 0 6 5 10 10
10 6 0 10 -4 10 -10z m276 -85 c12 -11 25 -31 29 -45 6 -20 -2 -15 -43 25 -30
29 -54 63 -57 80 l-7 30 29 -35 c15 -19 37 -44 49 -55z m-182 11 c15 -13 24
-25 20 -28 -5 -2 -22 9 -38 24 -35 34 -22 37 18 4z m-74 -6 c0 -5 -2 -10 -4
-10 -3 0 -8 5 -11 10 -3 6 -1 10 4 10 6 0 11 -4 11 -10z m-1335 -40 c3 -5 1
-10 -4 -10 -6 0 -11 5 -11 10 0 6 2 10 4 10 3 0 8 -4 11 -10z m325 -125 c0 -7
-30 -13 -34 -7 -3 4 4 9 15 9 10 1 19 0 19 -2z m-588 -87 c-7 -7 -12 -8 -12
-2 0 6 3 14 7 17 3 4 9 5 12 2 2 -3 -1 -11 -7 -17z m2098 -300 c0 -16 -3 -19
-11 -11 -6 6 -8 16 -5 22 11 17 16 13 16 -11z m-2200 8 c0 -3 -4 -8 -10 -11
-5 -3 -10 -1 -10 4 0 6 5 11 10 11 6 0 10 -2 10 -4z m2218 -87 c-3 -20 -5 -19
-9 9 -3 20 -2 29 4 23 5 -5 7 -19 5 -32z m-2173 -190 c-4 -5 -13 -9 -22 -9
-13 0 -13 3 -3 15 13 15 35 11 25 -6z m-27 -182 c15 6 15 5 3 -10 -10 -13 -17
-15 -27 -6 -8 6 -11 16 -7 22 5 8 8 8 10 0 3 -7 12 -9 21 -6z m42 -2 c-7 -9
-15 -13 -17 -11 -7 7 7 26 19 26 6 0 6 -6 -2 -15z m37 -7 c-3 -8 -6 -5 -6 6
-1 11 2 17 5 13 3 -3 4 -12 1 -19z m-3 -44 c8 -21 8 -24 -3 -24 -5 0 -11 9
-14 20 -6 24 8 27 17 4z m1974 -29 c-3 -3 -9 2 -12 12 -6 14 -5 15 5 6 7 -7
10 -15 7 -18z m122 -53 c0 -17 -17 -7 -31 19 -9 18 -9 19 10 7 12 -7 21 -19
21 -26z m-40 -8 c0 -16 -9 -18 -28 -6 -7 5 -10 16 -6 26 5 13 9 14 20 5 8 -6
14 -18 14 -25z m-115 -62 c-8 -8 -25 10 -19 20 4 6 9 5 15 -3 4 -7 6 -15 4
-17z m30 -22 c3 -5 1 -10 -4 -10 -6 0 -11 5 -11 10 0 6 2 10 4 10 3 0 8 -4 11
-10z m115 -10 c0 -5 -2 -10 -4 -10 -3 0 -8 5 -11 10 -3 6 -1 10 4 10 6 0 11
-4 11 -10z m-2094 -17 c4 -10 6 -21 6 -25 -1 -5 5 -8 13 -8 12 0 12 -5 -3 -34
-16 -32 -40 -40 -28 -10 10 25 -5 76 -20 70 -15 -6 -19 6 -7 17 12 13 31 7 39
-10z m2039 -23 c3 -5 2 -10 -4 -10 -5 0 -13 5 -16 10 -3 6 -2 10 4 10 5 0 13
-4 16 -10z m-1955 -4 c0 -3 -4 -8 -10 -11 -5 -3 -10 -1 -10 4 0 6 5 11 10 11
6 0 10 -2 10 -4z m1866 -21 c1 -14 -2 -25 -7 -25 -10 0 -12 33 -2 43 3 4 7 7
7 7 1 0 2 -11 2 -25z m129 15 c3 -6 -1 -7 -9 -4 -18 7 -21 14 -7 14 6 0 13 -4
16 -10z m-2060 -96 c-17 -13 -18 -16 -5 -24 9 -6 10 -10 3 -10 -22 0 -26 23
-8 37 11 7 21 13 24 13 3 0 -3 -7 -14 -16z m135 -24 c0 -5 -5 -10 -11 -10 -5
0 -7 5 -4 10 3 6 8 10 11 10 2 0 4 -4 4 -10z m-65 -40 c-3 -5 -11 -10 -16 -10
-6 0 -7 5 -4 10 3 6 11 10 16 10 6 0 7 -4 4 -10z m1820 -30 c3 -6 -1 -7 -9 -4
-18 7 -21 14 -7 14 6 0 13 -4 16 -10z m-1737 -97 c-10 -2 -26 -2 -35 0 -10 3
-2 5 17 5 19 0 27 -2 18 -5z m1769 -33 c-1 -20 -8 -25 -20 -14 -3 3 0 12 6 20
16 17 16 17 14 -6z m-97 -31 c0 -6 -4 -7 -10 -4 -5 3 -10 11 -10 16 0 6 5 7
10 4 6 -3 10 -11 10 -16z m66 -16 c-7 -7 -26 7 -26 19 0 6 6 6 15 -2 9 -7 13
-15 11 -17z m4 -88 c11 -13 10 -14 -4 -9 -9 3 -16 10 -16 15 0 13 6 11 20 -6z
m-145 -5 c3 -5 1 -10 -4 -10 -6 0 -11 5 -11 10 0 6 2 10 4 10 3 0 8 -4 11 -10z
m35 -150 c0 -5 -5 -10 -11 -10 -5 0 -7 5 -4 10 3 6 8 10 11 10 2 0 4 -4 4 -10z
m-1430 -10 c0 -5 -2 -10 -4 -10 -3 0 -8 5 -11 10 -3 6 -1 10 4 10 6 0 11 -4
11 -10z m1253 -27 c-7 -2 -19 -2 -25 0 -7 3 -2 5 12 5 14 0 19 -2 13 -5z
m-1067 -80 c-10 -10 -19 5 -10 18 6 11 8 11 12 0 2 -7 1 -15 -2 -18z m4 -23
c0 -5 -5 -10 -11 -10 -5 0 -7 5 -4 10 3 6 8 10 11 10 2 0 4 -4 4 -10z m880
-55 c0 -8 -4 -17 -10 -20 -6 -4 -10 5 -10 20 0 15 4 24 10 20 6 -3 10 -12 10
-20z m-741 -44 c-13 -4 -15 -2 -23 29 l-7 25 20 -25 c11 -14 15 -27 10 -29z
m636 -30 c3 -5 1 -12 -4 -15 -5 -3 -11 1 -15 9 -6 16 9 21 19 6z m-286 -141
c0 -22 -2 -21 -14 10 -18 47 -18 58 0 34 8 -10 14 -30 14 -44z m28 -12 c-3 -8
-6 -5 -6 6 -1 11 2 17 5 13 3 -3 4 -12 1 -19z m73 -42 c0 -3 -4 -8 -10 -11 -5
-3 -10 -1 -10 4 0 6 5 11 10 11 6 0 10 -2 10 -4z"/>
<path d="M2705 2780 c3 -5 11 -10 16 -10 6 0 7 5 4 10 -3 6 -11 10 -16 10 -6
0 -7 -4 -4 -10z"/>
<path d="M3032 2640 c0 -14 2 -19 5 -12 2 6 2 18 0 25 -3 6 -5 1 -5 -13z"/>
<path d="M3090 2650 c0 -5 5 -10 11 -10 5 0 7 5 4 10 -3 6 -8 10 -11 10 -2 0
-4 -4 -4 -10z"/>
<path d="M1859 2505 c-15 -8 -36 -33 -47 -55 -12 -24 -22 -36 -25 -28 -4 10
-10 8 -21 -6 -9 -11 -16 -25 -15 -30 0 -6 3 -5 6 2 8 19 17 15 100 -43 116
-82 156 -100 288 -129 154 -35 160 -37 185 -87 18 -35 20 -45 10 -70 -20 -48
-68 -70 -168 -76 -119 -8 -169 9 -243 81 -89 87 -114 156 -55 156 41 0 38 16
-6 34 -54 21 -62 12 -63 -67 -1 -68 8 -89 33 -80 14 6 15 5 2 -9 -8 -9 -19
-13 -24 -10 -5 3 -6 0 -2 -6 4 -7 14 -12 22 -12 19 0 18 -16 -2 -24 -8 -3 -12
-11 -8 -17 5 -8 9 -8 14 1 14 22 32 1 19 -22 -10 -18 -8 -19 13 -13 18 5 20 4
8 -4 -13 -9 -13 -12 -1 -20 8 -5 11 -16 8 -26 -4 -9 -3 -14 2 -11 5 3 17 -6
27 -19 10 -14 26 -25 36 -25 9 0 20 -5 24 -11 3 -6 15 -9 25 -6 10 3 22 1 25
-4 3 -5 26 -9 51 -9 36 0 44 3 39 15 -3 8 -1 15 4 15 6 0 10 -7 10 -15 0 -12
4 -14 19 -5 11 5 22 6 25 1 6 -10 56 -2 56 9 0 4 15 11 33 14 21 4 39 15 47
31 7 13 16 24 19 23 25 -3 31 4 26 29 -2 15 0 30 6 34 5 3 12 28 15 55 3 27 8
51 10 53 2 2 -4 9 -13 16 -21 16 -11 31 26 38 32 7 58 45 80 117 20 62 19 64
-9 66 -28 1 -48 5 -195 34 -83 17 -171 46 -375 124 -8 3 -27 -1 -41 -9z m82
-520 c0 -6 -10 -12 -22 -13 -19 -3 -20 -2 -8 12 15 16 31 17 30 1z m369 -15
c0 -5 -4 -10 -10 -10 -5 0 -10 5 -10 10 0 6 5 10 10 10 6 0 10 -4 10 -10z
m-26 -35 c-4 -8 -8 -15 -10 -15 -2 0 -4 7 -4 15 0 8 4 15 10 15 5 0 7 -7 4
-15z m-37 -14 c1 -12 -9 -21 -33 -29 -31 -9 -34 -8 -34 10 0 16 3 18 13 9 11
-8 18 -6 32 9 22 24 20 24 22 1z m-267 -1 c0 -5 -4 -10 -10 -10 -5 0 -10 5
-10 10 0 6 5 10 10 10 6 0 10 -4 10 -10z m120 -24 c-14 -14 -62 -16 -57 -1 3
5 14 9 26 8 11 -2 21 2 21 8 0 5 5 7 11 3 8 -4 7 -10 -1 -18z"/>
<path d="M3341 2405 c-154 -54 -216 -65 -364 -65 -64 0 -117 -2 -117 -5 0 -3
18 -37 40 -76 42 -75 46 -84 30 -74 -15 9 -12 -2 6 -20 14 -13 14 -23 6 -58
-7 -27 -8 -45 -2 -51 6 -6 10 -19 10 -29 0 -11 12 -31 27 -44 21 -20 24 -27
12 -35 -11 -7 -9 -8 6 -4 15 4 23 -1 32 -19 13 -29 -1 -44 -16 -18 -9 15 -10
15 -11 2 0 -8 6 -23 13 -34 13 -17 15 -17 30 5 11 16 13 29 7 46 -5 13 -6 24
-1 24 5 0 11 -7 15 -15 3 -8 13 -15 22 -15 13 0 15 -6 9 -27 -16 -65 -17 -63
28 -62 23 1 34 3 24 6 -9 2 -14 9 -11 15 4 6 -2 8 -17 4 -23 -7 -23 -7 -5 8
25 20 35 20 42 1 4 -10 13 -13 24 -10 11 4 20 -1 25 -12 6 -15 9 -14 15 9 5
15 6 37 3 48 -5 18 -7 18 -34 5 -38 -20 -52 -19 -67 5 -7 12 -8 20 -2 20 5 0
10 -5 10 -10 0 -6 10 -8 23 -5 12 3 33 7 47 9 14 1 32 6 39 10 7 4 15 5 19 1
3 -3 0 -10 -7 -14 -17 -11 -5 -32 14 -25 8 4 13 10 10 14 -3 4 2 13 10 20 8 7
15 19 15 27 0 11 7 14 26 10 14 -2 31 2 39 9 7 8 22 11 32 8 17 -5 17 -5 1 6
-17 10 -16 13 7 34 14 13 25 30 25 38 0 8 5 19 10 24 14 14 22 57 22 113 1 34
5 45 19 48 11 3 19 9 19 14 0 14 -9 11 -40 -11 -16 -11 -43 -23 -62 -27 l-33
-7 30 -6 c39 -7 43 -39 15 -104 -25 -58 -48 -78 -123 -107 -76 -29 -197 -23
-272 12 -61 29 -67 51 -31 115 31 55 30 51 9 57 -10 3 14 4 53 3 55 -1 71 -4
70 -15 -1 -8 10 -21 24 -28 22 -11 27 -11 39 7 7 11 21 20 30 21 9 0 0 6 -19
13 l-35 13 50 7 c71 11 149 43 200 81 24 19 62 43 84 55 46 23 47 24 26 74
-10 22 -22 36 -33 35 -9 0 -73 -20 -141 -44z m-181 -465 c0 -5 -4 -10 -9 -10
-6 0 -13 5 -16 10 -3 6 1 10 9 10 9 0 16 -4 16 -10z m50 -60 c13 -8 13 -10 -2
-10 -9 0 -20 5 -23 10 -8 13 5 13 25 0z"/>
<path d="M2530 2400 c0 -5 5 -10 11 -10 5 0 7 5 4 10 -3 6 -8 10 -11 10 -2 0
-4 -4 -4 -10z"/>
<path d="M2541 2324 c-12 -14 -11 -16 4 -12 10 1 20 9 23 16 5 17 -10 15 -27
-4z"/>
<path d="M1802 2304 c10 -10 20 -15 24 -12 3 4 -5 12 -18 18 -22 12 -22 12 -6
-6z"/>
<path d="M2791 2263 c-18 -20 -6 -29 14 -10 8 9 12 18 8 20 -5 3 -14 -2 -22
-10z"/>
<path d="M2525 2220 c3 -5 8 -10 11 -10 2 0 4 5 4 10 0 6 -5 10 -11 10 -5 0
-7 -4 -4 -10z"/>
<path d="M2112 2168 c4 -32 63 -39 71 -9 5 22 -9 31 -50 31 -20 0 -24 -4 -21
-22z"/>
<path d="M2815 2180 c3 -5 8 -10 11 -10 2 0 4 5 4 10 0 6 -5 10 -11 10 -5 0
-7 -4 -4 -10z"/>
<path d="M2060 2136 c0 -9 5 -16 10 -16 6 0 10 4 10 9 0 6 -4 13 -10 16 -5 3
-10 -1 -10 -9z"/>
<path d="M2633 2119 c-42 -38 -44 -73 -5 -87 24 -8 32 -6 60 19 17 15 27 31
22 34 -13 8 -1 35 16 35 19 0 18 16 -2 24 -23 9 -25 8 -22 -11 2 -10 -3 -17
-9 -15 -16 3 -17 -14 -3 -23 16 -10 -5 -32 -35 -37 -35 -7 -50 5 -35 29 7 11
22 24 33 29 21 9 36 34 20 34 -4 0 -23 -14 -40 -31z"/>
<path d="M3062 2138 c2 -6 10 -14 16 -16 7 -2 10 2 6 12 -7 18 -28 22 -22 4z"/>
<path d="M2746 2095 c-3 -8 -1 -15 4 -15 13 0 22 18 11 24 -5 3 -11 -1 -15 -9z"/>
<path d="M2656 2091 c-4 -7 -5 -15 -2 -18 9 -9 19 4 14 18 -4 11 -6 11 -12 0z"/>
<path d="M2765 2059 c-4 -6 -5 -13 -2 -16 7 -7 27 6 27 18 0 12 -17 12 -25 -2z"/>
<path d="M2589 2023 c-2 -28 -11 -62 -21 -86 -8 -21 -8 -31 1 -40 9 -9 11 -9
7 3 -3 8 5 27 17 43 l23 27 -1 -49 c0 -38 -6 -56 -27 -82 -16 -18 -28 -29 -28
-25 0 5 -7 3 -15 -4 -11 -9 -11 -15 -2 -24 13 -14 47 -9 47 6 0 21 44 49 67
43 36 -9 27 3 -9 14 l-33 9 38 1 c40 1 55 18 42 49 -7 15 -9 14 -14 -6 -3 -13
-9 -23 -13 -23 -5 1 -13 1 -18 1 -6 0 -10 6 -9 13 1 6 -1 20 -6 31 -5 11 -3
21 5 26 9 5 9 9 1 15 -7 4 -9 16 -5 27 5 17 3 20 -10 15 -10 -4 -16 -1 -16 8
0 15 -19 22 -21 8z"/>
<path d="M2722 2012 c-19 -17 -19 -19 -4 -29 10 -5 26 -7 37 -2 11 4 14 8 6 8
-7 1 -11 7 -8 16 9 23 -8 26 -31 7z"/>
<path d="M1790 2010 c0 -5 5 -10 11 -10 5 0 7 5 4 10 -3 6 -8 10 -11 10 -2 0
-4 -4 -4 -10z"/>
<path d="M2780 1991 c0 -6 5 -11 11 -11 7 0 9 -11 6 -30 -4 -18 -2 -30 4 -30
15 0 7 73 -8 78 -7 2 -13 -1 -13 -7z"/>
<path d="M2690 1965 c-7 -8 -8 -15 -2 -15 5 0 15 7 22 15 7 8 8 15 2 15 -5 0
-15 -7 -22 -15z"/>
<path d="M2770 1961 c0 -5 5 -13 10 -16 6 -3 10 -2 10 4 0 5 -4 13 -10 16 -5
3 -10 2 -10 -4z"/>
<path d="M3372 1929 c2 -6 8 -10 13 -10 5 0 11 4 13 10 2 6 -4 11 -13 11 -9 0
-15 -5 -13 -11z"/>
<path d="M3320 1920 c0 -5 4 -10 9 -10 6 0 13 5 16 10 3 6 -1 10 -9 10 -9 0
-16 -4 -16 -10z"/>
<path d="M2710 1909 c0 -5 5 -7 10 -4 6 3 10 8 10 11 0 2 -4 4 -10 4 -5 0 -10
-5 -10 -11z"/>
<path d="M2793 1903 c-18 -7 -16 -23 2 -23 8 0 15 7 15 15 0 8 -1 15 -2 14 -2
0 -9 -3 -15 -6z"/>
<path d="M3070 1900 c0 -5 5 -10 11 -10 5 0 7 5 4 10 -3 6 -8 10 -11 10 -2 0
-4 -4 -4 -10z"/>
<path d="M3273 1893 c-7 -2 -13 -11 -13 -19 0 -9 5 -12 10 -9 6 3 10 0 10 -8
0 -10 7 -13 20 -10 23 6 24 8 10 34 -11 19 -16 21 -37 12z"/>
<path d="M3340 1880 c-13 -8 -12 -10 3 -10 9 0 17 5 17 10 0 12 -1 12 -20 0z"/>
<path d="M2740 1871 c0 -5 -11 -12 -25 -15 -15 -4 -23 -11 -19 -17 4 -7 10 -7
16 -1 6 6 16 8 22 6 6 -2 12 5 13 16 1 11 0 20 -3 20 -2 0 -4 -4 -4 -9z"/>
<path d="M3051 1866 c-9 -11 -8 -15 4 -20 9 -3 13 -2 10 4 -3 6 -1 10 4 10 6
0 11 5 11 10 0 14 -16 12 -29 -4z"/>
<path d="M2551 1854 c0 -11 3 -14 6 -6 3 7 2 16 -1 19 -3 4 -6 -2 -5 -13z"/>
<path d="M3235 1850 c-3 -5 1 -10 10 -10 9 0 13 5 10 10 -3 6 -8 10 -10 10 -2
0 -7 -4 -10 -10z"/>
<path d="M1621 1828 c-10 -28 -6 -38 17 -38 19 0 57 38 48 47 -3 3 -17 -2 -32
-11 -25 -17 -26 -17 -19 3 9 28 -3 27 -14 -1z"/>
<path d="M2801 1833 c0 -5 4 -17 9 -28 8 -18 9 -17 9 8 1 15 -3 27 -9 27 -5 0
-10 -3 -9 -7z"/>
<path d="M2678 1803 c7 -3 16 -2 19 1 4 3 -2 6 -13 5 -11 0 -14 -3 -6 -6z"/>
<path d="M3611 1794 c0 -11 3 -14 6 -6 3 7 2 16 -1 19 -3 4 -6 -2 -5 -13z"/>
<path d="M2650 1780 c0 -5 5 -10 11 -10 5 0 7 5 4 10 -3 6 -8 10 -11 10 -2 0
-4 -4 -4 -10z"/>
<path d="M2808 1762 c-15 -17 -14 -52 2 -52 14 0 21 -32 9 -46 -12 -15 -9 -17
13 -9 9 4 12 18 10 46 -3 32 -7 38 -18 28 -11 -9 -14 -8 -14 4 0 9 7 20 16 25
10 5 12 12 7 15 -6 4 -17 -1 -25 -11z"/>
<path d="M2520 1747 c0 -5 8 -6 17 -3 15 6 15 5 -1 -13 -10 -11 -20 -32 -22
-46 -1 -14 -8 -32 -14 -40 -7 -8 -9 -15 -5 -15 4 0 -1 -12 -10 -27 -16 -24
-16 -26 0 -20 9 4 19 7 21 7 2 0 4 8 4 19 0 10 6 24 14 31 8 6 17 19 19 28 2
9 3 7 2 -5 -3 -27 10 -30 24 -5 9 14 12 14 20 3 6 -9 11 -10 15 -2 4 6 22 11
39 12 32 0 32 0 7 11 -14 5 -33 14 -42 19 -10 5 -24 6 -33 3 -8 -3 -15 -1 -15
6 0 12 29 45 34 39 1 -2 8 -15 14 -29 l12 -25 -3 27 c-2 15 1 29 7 32 6 2 -15
4 -46 3 -32 0 -58 -5 -58 -10z"/>
<path d="M2665 1730 c-28 -29 -28 -30 -6 -30 14 0 21 5 18 13 -2 6 2 20 11 30
25 29 8 19 -23 -13z"/>
<path d="M2750 1750 c0 -5 5 -10 11 -10 5 0 7 5 4 10 -3 6 -8 10 -11 10 -2 0
-4 -4 -4 -10z"/>
<path d="M1710 1715 c0 -8 2 -15 4 -15 2 0 6 7 10 15 3 8 1 15 -4 15 -6 0 -10
-7 -10 -15z"/>
<path d="M2710 1699 c0 -5 5 -7 10 -4 6 3 10 8 10 11 0 2 -4 4 -10 4 -5 0 -10
-5 -10 -11z"/>
<path d="M2651 1652 c-1 -9 -8 -11 -21 -7 -21 7 -28 -10 -7 -18 7 -4 6 -6 -5
-6 -9 -1 -23 -8 -32 -16 -11 -11 -17 -12 -22 -3 -4 6 -2 14 4 16 7 2 12 8 12
14 0 7 -5 6 -14 -1 -7 -6 -21 -9 -30 -5 -9 3 -16 1 -16 -5 0 -6 7 -11 15 -11
8 0 15 -7 15 -15 0 -8 -4 -15 -10 -15 -5 0 -10 5 -10 12 0 6 -9 3 -20 -7 -11
-10 -20 -22 -20 -27 0 -12 -28 -40 -53 -53 -11 -5 -22 -16 -25 -24 -3 -8 0
-11 7 -7 6 4 11 2 11 -4 0 -7 -6 -10 -12 -7 -7 2 -12 13 -11 25 1 11 -4 22
-11 25 -10 4 -16 -13 -25 -64 -9 -57 -9 -74 3 -97 18 -36 127 -99 184 -108 76
-11 226 3 285 27 66 28 82 44 95 97 18 74 -18 237 -45 207 -5 -4 -3 -10 3 -12
7 -2 10 -13 7 -24 -6 -20 -6 -20 -25 1 -10 11 -16 25 -12 31 4 7 1 10 -6 7
-32 -10 -23 -30 35 -72 20 -14 20 -15 -9 -45 -17 -17 -33 -31 -36 -31 -4 0
-12 12 -19 28 -10 24 -10 25 3 9 12 -16 17 -16 35 -5 12 7 21 19 21 27 0 12
-3 12 -12 3 -9 -9 -14 -7 -24 6 -8 10 -13 12 -14 5 0 -9 -7 -10 -26 -3 -32 13
-44 13 -44 0 0 -5 6 -10 14 -10 8 0 17 -8 20 -17 8 -19 -17 -38 -48 -38 -11 0
-21 -6 -24 -14 -3 -10 1 -12 16 -9 12 4 26 0 33 -8 11 -13 5 -19 -15 -15 -5 1
-12 -3 -16 -9 -5 -8 -14 -5 -28 10 -19 20 -24 21 -58 10 -32 -11 -34 -14 -19
-22 12 -7 20 -7 25 1 5 8 14 9 32 2 24 -9 44 -38 33 -49 -3 -3 -5 -1 -5 5 0
15 -54 23 -62 10 -5 -8 -11 -6 -21 7 -8 11 -18 17 -23 14 -5 -3 -22 1 -39 8
-23 10 -25 13 -10 14 15 0 21 8 22 30 2 34 -11 39 -27 10 -6 -11 -18 -20 -26
-20 -8 0 -12 5 -9 10 3 6 1 10 -4 10 -16 0 -13 46 3 59 22 19 27 49 7 44 -10
-2 -23 3 -30 11 -8 9 -12 16 -10 16 2 0 18 4 35 9 22 6 36 5 49 -5 19 -14 19
-15 -3 -30 -12 -8 -22 -24 -22 -35 0 -11 -5 -29 -11 -41 -9 -17 -8 -19 8 -16
10 2 19 10 19 18 1 8 2 23 3 32 1 17 41 22 41 6 0 -4 5 -8 11 -8 7 0 9 10 5
26 -5 17 -3 23 4 19 5 -3 10 1 10 10 0 8 6 18 14 21 8 3 12 12 10 19 -3 7 -1
16 5 20 6 3 11 15 11 27 0 15 5 19 20 15 11 -3 20 -1 20 4 0 23 -60 4 -61 -20
-1 -9 -4 -6 -9 9 -4 14 -8 19 -9 12z m9 -57 c0 -8 -7 -15 -15 -15 -16 0 -20
12 -8 23 11 12 23 8 23 -8z m-31 -40 c-7 -7 -13 -5 -19 5 -15 24 -11 31 10 18
13 -9 16 -16 9 -23z m-139 -42 c0 -5 5 -26 10 -48 8 -36 7 -38 -6 -21 -8 11
-14 26 -14 34 0 8 -6 12 -15 8 -12 -4 -13 -2 -2 14 12 20 27 27 27 13z m-33
-88 c-7 -16 -37 -21 -37 -5 0 10 32 31 39 25 2 -2 1 -11 -2 -20z m53 -30 c0
-3 -9 0 -20 7 -11 7 -20 18 -20 25 0 8 8 5 20 -7 11 -11 20 -22 20 -25z"/>
<path d="M2770 1626 c0 -9 5 -16 10 -16 6 0 10 4 10 9 0 6 -4 13 -10 16 -5 3
-10 -1 -10 -9z"/>
<path d="M1735 1620 c-3 -5 -2 -10 4 -10 5 0 13 5 16 10 3 6 2 10 -4 10 -5 0
-13 -4 -16 -10z"/>
<path d="M2723 1623 c-7 -3 -12 -14 -12 -26 1 -17 2 -18 6 -4 5 21 23 23 23 2
0 -17 25 -20 35 -5 3 6 -1 10 -9 10 -8 0 -19 6 -23 14 -4 7 -14 11 -20 9z"/>
<path d="M2841 1604 c0 -11 3 -14 6 -6 3 7 2 16 -1 19 -3 4 -6 -2 -5 -13z"/>
<path d="M2797 1593 c-4 -3 -7 -11 -7 -17 0 -6 5 -5 12 2 6 6 9 14 7 17 -3 3
-9 2 -12 -2z"/>
<path d="M2406 1574 c-9 -8 -16 -21 -16 -29 0 -14 30 -29 39 -19 3 4 0 9 -6
11 -27 10 -13 30 20 27 17 -2 23 -1 13 2 -15 5 -16 8 -5 15 11 7 9 9 -8 9 -12
0 -29 -7 -37 -16z"/>
<path d="M2800 1541 c0 -13 29 -35 37 -28 7 8 -15 37 -28 37 -5 0 -9 -4 -9 -9z"/>
<path d="M3538 1515 c2 -14 6 -25 8 -25 2 0 4 11 4 25 0 14 -4 25 -9 25 -4 0
-6 -11 -3 -25z"/>
<path d="M2710 1509 c0 -5 7 -9 15 -9 8 0 18 0 22 -1 4 0 9 3 10 8 2 4 -8 9
-22 9 -14 1 -25 -2 -25 -7z"/>
<path d="M2620 1463 c8 -3 18 -11 22 -17 5 -7 8 -4 8 7 0 11 -7 17 -22 16 -16
0 -18 -2 -8 -6z"/>
<path d="M2708 1463 c-10 -2 -18 -9 -18 -14 0 -12 10 -11 40 6 24 14 14 18
-22 8z"/>
<path d="M3078 1433 c7 -3 16 -2 19 1 4 3 -2 6 -13 5 -11 0 -14 -3 -6 -6z"/>
<path d="M2610 1420 c0 -5 5 -10 10 -10 6 0 10 5 10 10 0 6 -4 10 -10 10 -5 0
-10 -4 -10 -10z"/>
<path d="M2437 1180 c-6 -16 -15 -30 -20 -30 -4 0 -3 9 3 19 14 27 14 27 -24
28 -31 1 -36 -4 -60 -51 -24 -46 -29 -35 -9 21 5 14 2 14 -14 -4 -20 -23 -40
-32 -28 -14 3 5 1 12 -4 15 -12 8 -28 -44 -35 -114 l-5 -55 20 25 c16 19 19
20 15 6 -6 -16 -4 -17 9 -6 8 7 15 21 15 31 0 24 20 25 21 2 0 -13 3 -11 11 7
l11 25 6 -25 c7 -24 7 -24 19 -5 6 11 12 16 12 11 0 -5 9 -1 20 9 12 11 20 13
20 6 0 -7 9 -6 25 5 24 16 25 16 19 -2 -5 -18 -5 -18 10 0 9 11 16 31 16 45 0
14 3 36 6 49 5 18 3 21 -11 15 -13 -4 -16 -3 -11 5 4 7 1 12 -9 12 -9 0 -22
-13 -28 -30z m-27 0 c0 -5 -4 -10 -10 -10 -5 0 -10 5 -10 10 0 6 5 10 10 10 6
0 10 -4 10 -10z m14 -65 c3 -8 1 -14 -4 -12 -5 1 -16 -7 -24 -18 -11 -14 -15
-16 -16 -6 0 12 27 51 35 51 2 0 5 -7 9 -15z"/>
<path d="M2515 1183 c-4 -16 -8 -42 -9 -60 -1 -26 1 -29 13 -20 11 10 13 8 7
-11 -6 -17 -4 -21 8 -16 9 3 16 16 17 28 0 20 1 20 9 1 8 -17 9 -15 8 10 0 17
3 38 7 48 7 16 -3 22 -27 18 -5 0 -8 6 -8 14 0 25 -17 17 -25 -12z"/>
<path d="M2769 1202 c-1 -4 -1 -11 0 -16 1 -5 -5 -4 -13 4 -14 11 -16 9 -16
-9 0 -24 -15 -28 -24 -6 -5 14 -36 22 -36 9 0 -3 9 -19 21 -36 12 -16 18 -32
15 -35 -3 -4 -6 -2 -6 4 0 6 -11 18 -25 27 -26 17 -26 17 -19 -11 8 -31 43
-83 56 -83 5 0 4 9 -2 20 -9 18 -6 17 26 -5 42 -28 51 -27 34 5 -12 22 -12 22
11 6 27 -19 49 -22 31 -4 -19 19 -14 33 6 15 10 -10 22 -17 27 -17 5 0 17 -7
27 -17 10 -9 18 -11 18 -6 0 6 -6 16 -14 22 -8 7 -14 21 -13 31 1 11 3 17 5
15 2 -2 2 -5 1 -7 -2 -1 4 -12 13 -23 50 -60 59 -69 54 -52 -3 9 -9 25 -12 35
-4 13 -4 14 4 3 8 -11 10 -11 15 0 3 9 8 6 15 -11 6 -14 22 -41 37 -60 23 -30
26 -32 20 -10 -4 14 -13 35 -21 47 -18 29 -18 39 1 23 8 -7 15 -19 15 -26 0
-8 5 -13 11 -11 7 1 20 -25 30 -57 10 -33 25 -66 33 -74 13 -13 15 -9 24 29
l10 44 1 -44 c1 -34 4 -42 16 -37 8 3 15 1 15 -4 0 -23 19 -8 25 19 12 54 9
94 -8 106 -20 14 -22 26 -5 22 6 -1 14 6 16 16 3 15 0 16 -22 6 -14 -7 -26
-20 -26 -31 0 -10 -4 -18 -9 -18 -13 0 -24 34 -12 38 16 5 13 32 -3 32 -8 0
-18 9 -21 20 -4 11 -11 18 -16 15 -5 -4 -9 1 -9 10 0 9 -4 14 -10 10 -5 -3 -7
-12 -3 -20 3 -9 -1 -15 -10 -15 -18 0 -29 24 -20 47 4 11 3 14 -5 9 -7 -4 -12
-1 -12 7 0 8 -7 18 -16 21 -8 3 -12 10 -9 16 4 6 -3 6 -18 -1 -18 -8 -30 -8
-45 0 -35 19 -46 13 -28 -14 13 -19 13 -23 2 -19 -8 3 -17 12 -20 19 -3 8 -14
18 -24 24 -17 9 -19 8 -15 -9 4 -16 2 -19 -11 -14 -9 3 -16 10 -16 14 0 9 -40
21 -41 12z m36 -52 l20 -25 -22 19 c-13 11 -23 24 -23 29 0 6 1 8 3 6 1 -2 11
-15 22 -29z m295 -210 c9 -16 8 -18 -5 -14 -8 4 -15 12 -15 20 0 20 7 17 20
-6z"/>
<path d="M2600 1185 c0 -5 -5 -29 -9 -53 -5 -23 -5 -45 0 -48 5 -3 9 4 9 15 0
11 5 23 11 26 7 5 8 -6 5 -32 -5 -32 -4 -31 9 12 18 62 18 65 1 65 -8 0 -17 6
-19 13 -3 6 -6 8 -7 2z"/>
<path d="M2215 1108 c-13 -30 -20 -24 -15 12 1 11 -1 12 -10 4 -7 -7 -12 -36
-13 -65 0 -30 -2 -42 -4 -27 -6 37 -33 25 -34 -16 l-2 -31 -7 35 -7 35 -11
-28 c-7 -16 -12 -35 -12 -43 0 -8 -5 -14 -10 -14 -6 0 -8 -11 -4 -25 3 -14 2
-25 -2 -24 -22 4 -34 -2 -34 -18 0 -12 3 -14 8 -6 10 15 41 11 53 -8 8 -11 9
-10 7 5 -2 10 3 21 10 23 6 3 12 -1 12 -9 0 -23 20 15 20 40 0 32 20 27 21 -5
l1 -28 7 25 c7 24 8 24 15 -10 l8 -35 8 40 c11 55 21 205 14 205 -3 0 -11 -15
-19 -32z"/>
<path d="M2378 990 c-64 -64 -89 -110 -53 -96 9 3 23 -3 32 -14 23 -26 31 -25
45 4 6 14 20 27 32 30 14 3 12 4 -6 3 -33 -2 -42 17 -10 21 28 4 63 -24 55
-44 -3 -8 -10 -11 -15 -8 -6 4 -8 -2 -6 -12 3 -13 12 -18 30 -17 27 2 44 -19
32 -39 -4 -5 4 -5 16 2 21 11 21 12 3 32 -18 20 -18 21 5 14 16 -6 29 -1 46
15 22 21 23 24 8 36 -15 10 -14 11 6 6 22 -5 33 -43 12 -43 -5 0 -10 -4 -10
-10 0 -5 9 -10 20 -10 11 0 20 -4 20 -10 0 -5 -4 -10 -10 -10 -12 0 -13 -10
-1 -29 7 -11 30 -14 93 -13 45 1 94 4 108 6 86 15 110 21 151 40 40 18 45 24
38 42 -4 12 -30 44 -57 71 -27 27 -52 56 -55 64 -3 8 -6 9 -6 2 -1 -9 -8 -10
-25 -3 -35 13 -101 4 -149 -19 l-41 -21 -36 25 c-50 34 -87 47 -150 50 l-55 3
-67 -68z m124 -62 c-9 -9 -15 -9 -24 0 -9 9 -7 12 12 12 19 0 21 -3 12 -12z
m-122 -12 c0 -3 -4 -8 -10 -11 -5 -3 -10 -1 -10 4 0 6 5 11 10 11 6 0 10 -2
10 -4z m358 -10 c-27 -20 -22 -27 8 -11 23 12 29 11 41 -1 8 -7 12 -18 8 -24
-3 -6 1 -7 9 -4 11 4 16 0 16 -10 0 -9 -7 -16 -15 -16 -8 0 -15 -7 -15 -15 0
-8 -7 -15 -15 -15 -9 0 -18 7 -21 15 -8 19 -31 19 -66 1 -33 -17 -35 -14 -10
14 9 11 17 24 17 28 1 17 31 52 45 52 12 -1 12 -3 -2 -14z m132 -1 c11 3 20 2
20 -3 0 -16 -52 -25 -61 -10 -14 21 -10 32 6 18 8 -6 23 -9 35 -5z m-196 -30
c3 -8 1 -15 -4 -15 -6 0 -10 7 -10 15 0 8 2 15 4 15 2 0 6 -7 10 -15z"/>
<path d="M3355 1040 c3 -5 8 -10 11 -10 2 0 4 5 4 10 0 6 -5 10 -11 10 -5 0
-7 -4 -4 -10z"/>
<path d="M2057 993 c-13 -13 -7 -32 8 -27 8 4 15 12 15 20 0 15 -12 19 -23 7z"/>
<path d="M3215 976 c-6 -11 -7 -37 -4 -56 4 -22 7 -26 8 -12 0 12 6 22 12 22
5 0 7 -4 4 -10 -3 -5 -1 -10 4 -10 6 0 12 3 12 8 7 47 6 59 -10 69 -13 8 -19
6 -26 -11z"/>
<path d="M3230 880 c0 -5 5 -10 10 -10 6 0 10 5 10 10 0 6 -4 10 -10 10 -5 0
-10 -4 -10 -10z"/>
<path d="M3305 880 c3 -5 8 -10 11 -10 2 0 4 5 4 10 0 6 -5 10 -11 10 -5 0 -7
-4 -4 -10z"/>
<path d="M2410 865 c0 -9 6 -12 15 -9 8 4 12 10 9 15 -8 14 -24 10 -24 -6z"/>
<path d="M2470 830 c0 -5 5 -10 10 -10 6 0 10 5 10 10 0 6 -4 10 -10 10 -5 0
-10 -4 -10 -10z"/>
<path d="M3190 830 c-8 -5 -10 -10 -5 -10 6 0 17 5 25 10 8 5 11 10 5 10 -5 0
-17 -5 -25 -10z"/>
<path d="M2950 719 c0 -5 5 -7 10 -4 6 3 10 8 10 11 0 2 -4 4 -10 4 -5 0 -10
-5 -10 -11z"/>
<path d="M2628 563 c6 -2 12 -11 12 -19 0 -17 16 -19 26 -3 7 13 -13 29 -36
28 -10 0 -11 -2 -2 -6z"/>
<path d="M2771 536 c16 -17 27 -22 34 -15 11 12 -19 39 -43 39 -10 0 -7 -8 9
-24z"/>
<path d="M2577 543 c-13 -12 -7 -23 13 -23 11 0 20 7 20 15 0 15 -21 21 -33 8z"/>
</g>
</svg>
